<svg{{ with .size }} height="{{ . }}" {{ end }} width="{{ .size }}" version="1.1" id="Layer_1" xmlns="http://www.w3.org/2000/svg" xmlns:xlink="http://www.w3.org/1999/xlink" x="0px" y="0px"
	 viewBox="0 0 600 600" style="enable-background:new 0 0 600 600;" xml:space="preserve">
<g>
	<path style="fill-rule:evenodd;clip-rule:evenodd;" d="M280.39,368.55l36.27-34.34h41.44l41.43-39.23V187.06H233.79v147.16h46.61V368.55z M347.74,222.94h20.73v58.85
		h-20.73V222.94z M290.78,222.69h20.73v58.88h-20.73V222.69z"/>
	<path style="fill-rule:evenodd;clip-rule:evenodd;" d="M295.52,35.82c-148.38,0-268.66,120.28-268.66,268.66s120.28,268.66,268.66,268.66
		s268.66-120.28,268.66-268.66S443.9,35.82,295.52,35.82z M420.25,304.78l-93.23,88.3h-41.44l-51.79,49.05v-49.05h-62.14V216.48
		l51.78-49.05h196.82V304.78z"/>
</g>
</svg>
